<svg xmlns="http://www.w3.org/2000/svg" width="454.36" height="118.402" viewBox="0 0 454.36 118.402">
  <g>
    <g>
      <path d="M12.754,103.491V17.762H41.293A32.355,32.355,0,0,1,56.266,21.05a24.058,24.058,0,0,1,9.924,9.219,26.745,26.745,0,0,1,3.522,13.917,26.482,26.482,0,0,1-3.581,13.857,24.412,24.412,0,0,1-9.924,9.278,31.991,31.991,0,0,1-14.914,3.288H27.434v32.882Zm14.68-46.152H41.293A13.5,13.5,0,0,0,51.1,53.757a12.716,12.716,0,0,0,3.7-9.571q0-6.108-3.7-9.631a13.63,13.63,0,0,0-9.806-3.524H27.434Z" fill="#eaf2f1"/>
      <path d="M126.025,103.491V38.9h14.328V51.231h3.993l-3.993,3.406q0-7.984,4.64-12.448t12.741-4.463q9.514,0,15.209,6.342T178.638,61.1v42.394H163.959V62.622q0-5.871-3.054-9.042t-8.572-3.17a11.158,11.158,0,0,0-8.515,3.288q-3.114,3.288-3.113,9.4v40.4Z" fill="#eaf2f1"/>
      <path d="M281.134,104.666a31.545,31.545,0,0,1-14.387-3.113,22.877,22.877,0,0,1-9.571-8.808A25.7,25.7,0,0,1,253.771,79.3V63.093a25.634,25.634,0,0,1,3.405-13.506,23.027,23.027,0,0,1,9.571-8.748,31.532,31.532,0,0,1,14.387-3.113q12.211,0,19.5,6.283T308.262,61.1h-14.68A10.757,10.757,0,0,0,290,53.287q-3.232-2.757-8.867-2.761-5.874,0-9.278,3.231t-3.4,9.218V79.3q0,5.989,3.4,9.278t9.278,3.289q5.637,0,8.867-2.761a10.751,10.751,0,0,0,3.581-7.81h14.68q-.351,10.807-7.633,17.088T281.134,104.666Z" fill="#eaf2f1"/>
      <path d="M320.343,103.491V17.762h14.68V38.9l-.353,12.331h3.993l-3.993,3.406q0-7.984,4.64-12.448t12.742-4.463q9.513,0,15.209,6.342T372.956,61.1v42.394h-14.68V62.622q0-5.871-3.054-9.042t-8.572-3.17a11.158,11.158,0,0,0-8.515,3.288q-3.112,3.288-3.112,9.4v40.4Z" fill="#eaf2f1"/>
      <g>
        <path d="M225.543,38.9V90.1h19.964v13.388H188.9V90.1H211.45v-51.2Z" fill="#eaf2f1"/>
        <circle cx="218.733" cy="22.538" r="8.802" fill="#eaf2f1"/>
      </g>
      <g>
        <path d="M96.14,38.9V90.1H116.1v13.388H59.5V90.1H82.046v-51.2Z" fill="#eaf2f1"/>
        <circle cx="89.273" cy="22.538" r="8.802" fill="#eaf2f1"/>
      </g>
    </g>
    <rect x="384.987" y="88.846" width="56.619" height="13.481" fill="#eaf2f1"/>
  </g>
</svg>
